<svg width="49" height="49" viewBox="0 0 49 49" fill="none" xmlns="http://www.w3.org/2000/svg">
<path d="M26.6149 38.5215C11.5818 38.5215 3.00718 28.011 2.6499 10.5215H10.1802C10.4275 23.3583 15.9791 28.7958 20.3763 29.9169V10.5215H27.4669V21.5926C31.8092 21.1161 36.3713 16.071 37.9104 10.5215H45.0009C44.421 13.3996 43.2649 16.1248 41.6051 18.5265C39.9453 20.9282 37.8174 22.9548 35.3545 24.4794C38.1036 25.8726 40.5319 27.8445 42.4789 30.265C44.426 32.6855 45.8476 35.4995 46.6499 38.5215H38.8448C38.1245 35.8967 36.6607 33.5471 34.6367 31.7671C32.6127 29.9872 30.1186 28.856 27.4669 28.5155V38.5215H26.6149Z" fill="#4E566A"/>
</svg>
